<svg width="99" height="29" fill="none" xmlns="http://www.w3.org/2000/svg"><g clip-path="url(#clip0_2_603)" fill-rule="evenodd" clip-rule="evenodd" fill="#BCC3DC"><path d="M61.418 22.679C55.665 26.8 47.326 29 40.146 29c-10.066 0-19.13-3.62-25.985-9.639-.539-.473-.056-1.118.59-.75 7.4 4.185 16.548 6.703 25.999 6.703 6.373 0 13.385-1.282 19.832-3.942.974-.402 1.788.62.836 1.307z"/><path d="M63.81 20.019c-.733-.913-4.862-.432-6.715-.218-.564.067-.65-.41-.142-.754 3.288-2.25 8.683-1.6 9.313-.846.629.758-.164 6.015-3.254 8.524-.474.386-.926.18-.715-.33.694-1.684 2.25-5.459 1.512-6.376zM57.224 3.167V.98c0-.33.26-.553.57-.553h10.07c.324 0 .582.226.582.553v1.873c-.004.314-.276.724-.758 1.374l-5.219 7.242c1.94-.046 3.986.235 5.744 1.198.397.218.505.537.535.85v2.334c0 .318-.362.691-.741.498-3.099-1.579-7.214-1.75-10.64.017-.35.184-.716-.184-.716-.502v-2.216c0-.357.005-.964.371-1.504l6.046-8.428h-5.262c-.323 0-.581-.222-.581-.55zM20.487 16.81h-3.064c-.293-.02-.526-.234-.547-.507V1.018c0-.306.263-.549.59-.549h2.857a.57.57 0 01.556.511v1.998h.056c.746-1.93 2.146-2.831 4.034-2.831 1.918 0 3.115.9 3.977 2.831.742-1.93 2.427-2.831 4.232-2.831 1.284 0 2.69.515 3.547 1.671.97 1.286.771 3.154.771 4.792l-.004 9.647c0 .306-.263.553-.59.553h-3.06c-.306-.02-.552-.26-.552-.553V8.156c0-.645.06-2.254-.086-2.865-.228-1.027-.913-1.316-1.801-1.316-.741 0-1.517.482-1.832 1.253-.314.77-.284 2.06-.284 2.928v8.101c0 .306-.263.553-.59.553h-3.06c-.31-.02-.552-.26-.552-.553l-.004-8.101c0-1.705.289-4.214-1.888-4.214-2.202 0-2.116 2.446-2.116 4.214v8.101c0 .306-.263.553-.59.553M77.117.147c4.546 0 7.007 3.795 7.007 8.62 0 4.663-2.72 8.361-7.007 8.361-4.465 0-6.895-3.795-6.895-8.524 0-4.759 2.46-8.457 6.895-8.457zm.026 3.12c-2.258 0-2.4 2.991-2.4 4.855 0 1.869-.03 5.857 2.374 5.857 2.374 0 2.486-3.218 2.486-5.178 0-1.29-.056-2.832-.456-4.055-.345-1.064-1.03-1.479-2.004-1.479zM90.02 16.81h-3.052c-.306-.02-.552-.26-.552-.553L86.412.967c.026-.28.28-.498.59-.498h2.84a.583.583 0 01.548.427v2.338h.056c.857-2.09 2.06-3.087 4.175-3.087 1.375 0 2.715.481 3.577 1.8C99 3.172 99 5.228 99 6.708v9.621c-.035.268-.289.482-.59.482h-3.073c-.28-.02-.513-.222-.543-.482V8.026c0-1.671.198-4.118-1.918-4.118-.745 0-1.43.486-1.771 1.223-.43.935-.487 1.865-.487 2.895v8.231c-.004.306-.271.553-.599.553M49.196 9.509c0 1.16.03 2.128-.573 3.158-.487.838-1.263 1.353-2.12 1.353-1.177 0-1.866-.87-1.866-2.157 0-2.538 2.34-3 4.56-3v.646zm3.09 7.26a.655.655 0 01-.724.07c-1.017-.82-1.202-1.202-1.758-1.985-1.68 1.667-2.875 2.166-5.05 2.166-2.582 0-4.586-1.546-4.586-4.642 0-2.417 1.345-4.063 3.267-4.867 1.663-.712 3.986-.838 5.761-1.035v-.385c0-.708.056-1.546-.375-2.158-.37-.548-1.086-.775-1.72-.775-1.167 0-2.206.583-2.46 1.79-.052.267-.254.531-.534.544l-2.97-.31c-.25-.055-.53-.252-.456-.624C41.36 1.056 44.62 0 47.533 0c1.49 0 3.439.385 4.615 1.483 1.491 1.353 1.349 3.158 1.349 5.123v4.641c0 1.395.595 2.007 1.155 2.76.194.269.237.591-.013.793-.625.506-1.737 1.449-2.349 1.977l-.004-.009M9.028 9.51c0 1.16.03 2.127-.573 3.158-.487.837-1.258 1.353-2.12 1.353-1.177 0-1.862-.872-1.862-2.158 0-2.538 2.34-2.999 4.555-2.999v.645zm3.09 7.258a.655.655 0 01-.724.072c-1.017-.821-1.198-1.203-1.758-1.986-1.68 1.667-2.87 2.166-5.05 2.166C2.007 17.02 0 15.474 0 12.379 0 9.962 1.349 8.315 3.267 7.51c1.663-.712 3.986-.838 5.761-1.035v-.385c0-.708.056-1.546-.37-2.157-.375-.55-1.09-.775-1.72-.775-1.168 0-2.21.582-2.465 1.788-.052.268-.254.532-.53.545L.97 5.182C.72 5.128.444 4.93.513 4.558 1.198 1.056 4.452 0 7.365 0c1.49 0 3.439.386 4.615 1.483 1.491 1.353 1.349 3.159 1.349 5.123v4.642c0 1.394.595 2.006 1.155 2.76.198.268.241.59-.009.792-.625.507-1.736 1.45-2.348 1.977l-.009-.009"/></g><defs><clipPath id="clip0_2_603"><path fill="white" d="M0 0h99v29H0z"/></clipPath></defs></svg>