<svg width="109" height="36" fill="none" xmlns="http://www.w3.org/2000/svg"><path d="M46.385 18.462c0 4.997-4.003 8.679-8.916 8.679s-8.917-3.682-8.917-8.68c0-5.031 4.004-8.678 8.917-8.678s8.916 3.647 8.916 8.679zm-3.903 0c0-3.123-2.32-5.26-5.013-5.26s-5.013 2.137-5.013 5.26c0 3.091 2.32 5.259 5.013 5.259s5.013-2.172 5.013-5.26zM65.62 18.462c0 4.997-4.003 8.679-8.916 8.679s-8.916-3.682-8.916-8.68c0-5.027 4.003-8.678 8.916-8.678s8.916 3.647 8.916 8.679zm-3.903 0c0-3.123-2.32-5.26-5.013-5.26s-5.013 2.137-5.013 5.26c0 3.091 2.32 5.259 5.013 5.259s5.013-2.172 5.013-5.26zM84.054 10.307v15.582c0 6.41-3.87 9.027-8.447 9.027-4.308 0-6.901-2.813-7.879-5.114l3.398-1.382c.606 1.413 2.088 3.08 4.477 3.08 2.929 0 4.744-1.765 4.744-5.087v-1.248h-.136c-.873 1.052-2.557 1.972-4.68 1.972-4.445 0-8.516-3.78-8.516-8.644 0-4.9 4.071-8.71 8.516-8.71 2.12 0 3.802.92 4.68 1.94h.136v-1.412h3.707v-.004zm-3.43 8.186c0-3.056-2.088-5.29-4.745-5.29-2.693 0-4.949 2.234-4.949 5.29 0 3.025 2.256 5.228 4.95 5.228 2.656 0 4.744-2.203 4.744-5.228zM90.165 1.174v25.435h-3.807V1.174h3.807zM105.001 21.318l3.029 1.972c-.978 1.413-3.334 3.847-7.405 3.847-5.05 0-8.82-3.811-8.82-8.68 0-5.16 3.802-8.678 8.383-8.678 4.612 0 6.868 3.584 7.606 5.521l.405.986-11.882 4.805c.91 1.742 2.324 2.63 4.308 2.63 1.987 0 3.366-.955 4.376-2.403zm-9.326-3.122l7.943-3.22c-.437-1.085-1.751-1.84-3.298-1.84-1.984 0-4.745 1.71-4.644 5.06zM14.142 16.204v-3.682h12.707c.125.642.189 1.4.189 2.222 0 2.763-.774 6.18-3.266 8.613-2.425 2.465-5.522 3.78-9.626 3.78-7.606 0-14.002-6.05-14.002-13.476C.144 6.234 6.54.184 14.146.184c4.208 0 7.205 1.612 9.457 3.713l-2.66 2.599c-1.616-1.48-3.803-2.63-6.801-2.63-5.554 0-9.898 4.371-9.898 9.795 0 5.423 4.344 9.794 9.898 9.794 3.603 0 5.654-1.413 6.969-2.696 1.066-1.041 1.767-2.528 2.043-4.559l-9.012.004z" fill="#BCC3DC"/></svg>