<svg width="20" height="20" fill="none" xmlns="http://www.w3.org/2000/svg"><path d="M10 7.5a2.5 2.5 0 100 5 2.5 2.5 0 000-5zm0-1.667a4.167 4.167 0 110 8.334 4.167 4.167 0 010-8.334zm5.417-.208a1.042 1.042 0 11-2.084 0 1.042 1.042 0 012.084 0zM10 3.333c-2.062 0-2.398.006-3.357.049-.654.03-1.092.118-1.499.276-.361.14-.622.308-.9.586-.26.252-.461.56-.586.9-.159.409-.246.846-.276 1.499-.044.92-.049 1.241-.049 3.357 0 2.062.006 2.398.049 3.358.03.652.118 1.091.276 1.497.141.363.308.623.585.9.28.28.541.448.9.586.411.16.85.247 1.5.277.92.044 1.241.049 3.357.049 2.062 0 2.398-.006 3.358-.049.651-.03 1.09-.118 1.497-.275.36-.141.623-.309.9-.585.28-.281.448-.542.587-.9.158-.411.246-.85.276-1.5.044-.92.049-1.242.049-3.358 0-2.062-.006-2.398-.049-3.357-.03-.652-.118-1.092-.276-1.499a2.424 2.424 0 00-.586-.9 2.404 2.404 0 00-.9-.586c-.408-.159-.847-.246-1.498-.276-.92-.044-1.242-.049-3.358-.049zm0-1.666c2.264 0 2.547.008 3.435.05.888.041 1.492.18 2.023.387.55.212 1.014.499 1.477.961.424.417.752.92.96 1.477.207.53.347 1.136.388 2.023.04.888.05 1.17.05 3.435 0 2.264-.008 2.547-.05 3.435-.041.888-.181 1.492-.387 2.023a4.069 4.069 0 01-.96 1.477c-.418.424-.921.752-1.478.96-.53.207-1.135.347-2.023.388-.888.04-1.17.05-3.435.05-2.264 0-2.547-.008-3.435-.05-.887-.041-1.492-.181-2.023-.387a4.075 4.075 0 01-1.477-.96 4.087 4.087 0 01-.96-1.478c-.207-.53-.347-1.135-.388-2.023-.04-.888-.05-1.17-.05-3.435 0-2.264.008-2.547.05-3.435.041-.888.18-1.492.387-2.023.209-.557.537-1.06.961-1.477a4.08 4.08 0 011.477-.96c.531-.207 1.135-.347 2.023-.388.888-.04 1.17-.05 3.435-.05z" fill="#CCD2E9"/></svg>