<svg width="127" height="32" fill="none" xmlns="http://www.w3.org/2000/svg"><path d="M28 4a1.333 1.333 0 011.333 1.333v7.334a3.333 3.333 0 000 6.666v7.334A1.334 1.334 0 0128 28H4a1.334 1.334 0 01-1.333-1.333v-7.334a3.333 3.333 0 000-6.666V5.333A1.333 1.333 0 014 4h24zm-6.667 8H10.667v8h10.666v-8z" fill="#0059F7"/><path d="M52.136 24.456c-1.552 0-2.864-.248-3.936-.744-1.056-.496-1.864-1.176-2.424-2.04-.56-.88-.84-1.872-.84-2.976h3.336c0 .464.128.92.384 1.368.256.432.664.784 1.224 1.056.576.272 1.328.408 2.256.408.832 0 1.528-.12 2.088-.36s.976-.552 1.248-.936c.272-.4.408-.848.408-1.344 0-.624-.264-1.12-.792-1.488-.528-.384-1.344-.624-2.448-.72l-1.536-.12c-1.68-.144-3.024-.664-4.032-1.56-.992-.912-1.488-2.112-1.488-3.6 0-1.12.264-2.08.792-2.88.528-.816 1.264-1.44 2.208-1.872.96-.448 2.08-.672 3.36-.672 1.328 0 2.472.232 3.432.696.96.464 1.704 1.12 2.232 1.968.528.832.792 1.816.792 2.952h-3.336c0-.48-.12-.92-.36-1.32-.224-.416-.568-.744-1.032-.984-.448-.256-1.024-.384-1.728-.384-.672 0-1.232.112-1.68.336-.448.224-.784.528-1.008.912-.224.384-.336.8-.336 1.248 0 .544.2 1.024.6 1.44.4.4 1.032.632 1.896.696l1.536.144c1.248.096 2.344.36 3.288.792.944.432 1.672 1.016 2.184 1.752.528.736.792 1.624.792 2.664 0 1.104-.288 2.08-.864 2.928-.576.832-1.4 1.48-2.472 1.944-1.056.464-2.304.696-3.744.696zM69.484 24v-3.864h-.552V15.84c0-.752-.184-1.312-.552-1.68-.368-.368-.936-.552-1.704-.552a63.33 63.33 0 00-3.144.096c-.56.016-1.064.04-1.512.072v-2.832c.368-.032.784-.064 1.248-.096.464-.032.936-.048 1.416-.048.496-.016.96-.024 1.392-.024 1.344 0 2.456.176 3.336.528.896.352 1.568.904 2.016 1.656.464.752.696 1.736.696 2.952V24h-2.64zm-4.2.336c-.944 0-1.776-.168-2.496-.504a3.929 3.929 0 01-1.656-1.44c-.384-.624-.576-1.376-.576-2.256 0-.96.232-1.744.696-2.352.48-.608 1.144-1.064 1.992-1.368.864-.304 1.872-.456 3.024-.456h3.024v1.992H66.22c-.768 0-1.36.192-1.776.576-.4.368-.6.848-.6 1.44s.2 1.072.6 1.44c.416.368 1.008.552 1.776.552.464 0 .888-.08 1.272-.24.4-.176.728-.464.984-.864.272-.416.424-.976.456-1.68l.816.936c-.08.912-.304 1.68-.672 2.304a3.586 3.586 0 01-1.488 1.44c-.624.32-1.392.48-2.304.48zM75.505 24V10.848c0-1.488.408-2.584 1.224-3.288.832-.72 2.056-1.08 3.672-1.08h1.152v2.544h-1.392c-.496 0-.88.136-1.152.408-.256.256-.384.624-.384 1.104V24h-3.12zm-1.608-10.296v-2.448h7.752v2.448h-7.752zM84.241 24V6.48h3.336V24h-3.336zM82.73 8.976V6.48h4.848v2.496H82.73zm14.444 15.48c-1.152 0-2.168-.184-3.048-.552-.88-.368-1.624-.864-2.232-1.488a6.757 6.757 0 01-1.392-2.16 6.968 6.968 0 01-.456-2.496v-.504c0-.896.16-1.744.48-2.544a6.745 6.745 0 011.416-2.16 6.454 6.454 0 012.256-1.488c.88-.368 1.872-.552 2.976-.552 1.104 0 2.096.184 2.976.552.88.352 1.624.848 2.232 1.488a6.252 6.252 0 011.416 2.16c.32.8.48 1.648.48 2.544v.504a6.66 6.66 0 01-.48 2.496c-.304.8-.76 1.52-1.368 2.16-.608.624-1.352 1.12-2.232 1.488-.88.368-1.888.552-3.024.552zm0-2.856c.816 0 1.504-.176 2.064-.528.56-.368.984-.856 1.272-1.464.288-.624.432-1.328.432-2.112 0-.8-.152-1.504-.456-2.112a3.292 3.292 0 00-1.296-1.464c-.56-.368-1.232-.552-2.016-.552s-1.464.184-2.04.552c-.56.352-.992.84-1.296 1.464-.304.608-.456 1.312-.456 2.112 0 .784.144 1.488.432 2.112a3.699 3.699 0 001.296 1.464c.56.352 1.248.528 2.064.528zm13.728 2.4l2.472-12.6h3.84l2.856 12.6h-2.64l-2.904-12.528h1.392L113.349 24h-2.448zm-.984 0l-.024-2.736h2.664V24h-2.64zm-1.344 0l-3.552-13.032h3.24L111.645 24h-3.072zm9.696 0v-2.736h2.664L120.909 24h-2.64zm1.056 0l3-13.032h3.024L122.205 24h-2.88z" fill="#081131"/></svg>