<svg width="106" height="29" fill="none" xmlns="http://www.w3.org/2000/svg"><path d="M18.925 25.389c-1.414.244-2.853.317-4.341.512l-4.54-13.085v13.647C8.63 26.609 7.34 26.805 6 27V2h3.771l5.16 14.185V2h3.994v23.389zm7.815-14.234c1.538 0 3.895-.073 5.31-.073v3.906c-1.762 0-3.821 0-5.31.073v5.811c2.332-.146 4.664-.342 7.02-.415v3.76l-10.99.854V2h10.99v3.906h-7.02v5.25zm21.782-5.249h-4.118v17.97c-1.34 0-2.68 0-3.97.048V5.906h-4.118V2h12.206v3.906zm6.45 4.98h5.433v3.907h-5.433v8.862h-3.895V2h11.09v3.906h-7.195v4.98zm13.645 9.351c2.258.049 4.54.22 6.748.342v3.857c-3.548-.22-7.095-.439-10.717-.512V2h3.969v18.237zm10.097 4.468c1.265.073 2.605.147 3.895.293V2h-3.895v22.705zM100 2l-5.036 11.89L100 27c-1.489-.195-2.977-.464-4.466-.708l-2.853-7.227-2.902 6.641c-1.44-.244-2.828-.317-4.267-.513l5.11-11.45L86.008 2h4.267l2.605 6.567L95.659 2H100z" fill="#BCC3DC"/></svg>