<svg width="119" height="31" fill="none" xmlns="http://www.w3.org/2000/svg"><g clip-path="url(#clip0_2_596)" fill="#BCC3DC"><path d="M38.114 24.287l1.481-3.515c1.601 1.22 3.728 1.856 5.83 1.856 1.554 0 2.534-.61 2.534-1.538-.024-2.588-9.296-.562-9.368-7.055-.023-3.295 2.844-5.833 6.906-5.833 2.414 0 4.827.61 6.548 2.001l-1.386 3.588c-1.577-1.025-3.537-1.757-5.4-1.757-1.267 0-2.103.61-2.103 1.391.023 2.539 9.367 1.147 9.462 7.347 0 3.369-2.796 5.737-6.81 5.737-2.94 0-5.64-.708-7.694-2.222zm56.847-4.784c-.74 1.318-2.127 2.221-3.728 2.221-2.365 0-4.277-1.952-4.277-4.369 0-2.416 1.912-4.37 4.277-4.37 1.601 0 2.987.904 3.728 2.222l4.086-2.319c-1.53-2.783-4.468-4.686-7.814-4.686-4.946 0-8.96 4.1-8.96 9.153 0 5.053 4.014 9.154 8.96 9.154 3.37 0 6.285-1.88 7.814-4.687l-4.086-2.319zM54.673.61h5.114v25.557h-5.114V.61zm46.381 0v25.557h5.114v-7.665l6.07 7.665h6.547l-7.718-9.105 7.145-8.494h-6.261l-5.783 7.054V.61h-5.114zm-26.07 18.942c-.74 1.245-2.27 2.172-3.99 2.172-2.366 0-4.278-1.952-4.278-4.369 0-2.416 1.912-4.37 4.278-4.37 1.72 0 3.25.977 3.99 2.247v4.32zm0-10.984v2.075c-.836-1.44-2.915-2.441-5.09-2.441-4.492 0-8.028 4.052-8.028 9.129s3.536 9.178 8.029 9.178c2.174 0 4.253-1.001 5.09-2.441v2.074h5.113V8.568h-5.114zM6.5 19.38c0 1.782-1.41 3.222-3.154 3.222C1.6 22.602.19 21.162.19 19.38c0-1.781 1.41-3.222 3.155-3.222H6.5v3.222zm1.577 0c0-1.781 1.41-3.222 3.154-3.222 1.745 0 3.154 1.44 3.154 3.222v8.056c0 1.781-1.41 3.221-3.154 3.221s-3.154-1.44-3.154-3.221V19.38zM11.23 6.444c-1.743 0-3.153-1.44-3.153-3.222S9.487 0 11.23 0s3.154 1.44 3.154 3.222v3.222h-3.154zm0 1.635c1.745 0 3.155 1.44 3.155 3.222s-1.41 3.222-3.154 3.222H3.32c-1.744 0-3.154-1.44-3.154-3.222S1.577 8.08 3.321 8.08h7.91zM23.872 11.448c0-1.782 1.41-3.222 3.154-3.222s3.154 1.44 3.154 3.222-1.41 3.222-3.154 3.222h-3.154v-3.222zm-1.578 0c0 1.782-1.41 3.222-3.154 3.222s-3.154-1.44-3.154-3.222v-8.08c0-1.781 1.41-3.222 3.154-3.222 1.745 0 3.154 1.44 3.154 3.222v8.08zM19.14 24.213c1.745 0 3.154 1.44 3.154 3.223 0 1.781-1.41 3.221-3.154 3.221s-3.154-1.44-3.154-3.221v-3.223h3.154zm0-1.61c-1.744 0-3.154-1.44-3.154-3.223 0-1.781 1.41-3.222 3.154-3.222h7.91c1.744 0 3.154 1.44 3.154 3.222s-1.41 3.222-3.154 3.222h-7.91z"/></g><defs><clipPath id="clip0_2_596"><path fill="white" d="M0 0h119v31H0z"/></clipPath></defs></svg>