<svg width="20" height="20" fill="none" xmlns="http://www.w3.org/2000/svg"><path d="M12.75 4.625a2.416 2.416 0 00-2.417 2.373L10.31 8.31a.5.5 0 01-.567.486l-1.3-.177C6.73 8.386 5.09 7.598 3.518 6.287c-.499 2.758.475 4.669 2.819 6.143l1.456.915a.5.5 0 01.028.827l-1.327.97c.79.049 1.539.014 2.16-.11 3.932-.784 6.546-3.743 6.546-8.623 0-.398-.843-1.784-2.45-1.784zM8.667 6.967a4.083 4.083 0 016.987-2.796c.593-.004 1.097.146 2.224-.538C17.6 5 17.462 5.593 16.867 6.41c0 6.369-3.914 9.465-7.886 10.258-2.723.543-6.683-.35-7.818-1.535.578-.044 2.928-.297 4.286-1.291C4.3 13.083-.274 10.39 2.732 3.155c1.41 1.648 2.841 2.77 4.291 3.364.965.396 1.202.388 1.645.449l-.001-.001z" fill="#CCD2E9"/></svg>