<svg width="86" height="20" fill="none" xmlns="http://www.w3.org/2000/svg"><path fill-rule="evenodd" clip-rule="evenodd" d="M69.824 6.414c.328.559.435 1.195.47 1.91l.047.953v6.664l.047.954c.096 1.558 1.258 2.71 2.847 2.808l.96.047V9.277l.047-.953c.04-.707.146-1.355.479-1.918a3.83 3.83 0 011.412-1.39 3.885 3.885 0 013.849.008c.584.334 1.07.815 1.406 1.394.328.559.43 1.207.47 1.906l.047.95v6.667l.048.954c.1 1.566 1.252 2.718 2.846 2.808l.96.047V8.324c0-2.02-.812-3.958-2.257-5.387a7.756 7.756 0 00-5.45-2.233 7.766 7.766 0 00-3.172.674 7.684 7.684 0 00-2.61 1.907 7.694 7.694 0 00-2.61-1.907 7.776 7.776 0 00-3.172-.675c-1.6 0-3.086.48-4.316 1.309-.75-.828-2.43-1.309-3.394-1.309V19.75l.964-.047c1.612-.105 2.778-1.226 2.84-2.808l.052-.954V9.277l.048-.953c.04-.719.142-1.351.47-1.914a3.839 3.839 0 011.412-1.39 3.896 3.896 0 013.85.002 3.833 3.833 0 011.41 1.392zm-65.97 13.29l.964.046h14.453l-.047-.95c-.131-1.566-1.253-2.71-2.843-2.812l-.964-.047h-8.67l11.56-11.43-.048-.949C18.184 1.98 17.015.837 15.417.75l-.964-.043L0 .703l.048.953c.126 1.551 1.264 2.719 2.84 2.809l.966.047h8.67L.965 15.942l.048.953c.095 1.57 1.241 2.707 2.842 2.808v.001zm51.14-16.213a9.516 9.516 0 012.09 3.09 9.426 9.426 0 010 7.29 9.516 9.516 0 01-2.09 3.089 9.7 9.7 0 01-6.815 2.789 9.7 9.7 0 01-6.815-2.789 9.446 9.446 0 010-13.469 9.639 9.639 0 013.124-2.064 9.735 9.735 0 017.377-.001 9.646 9.646 0 013.13 2.066v-.001zm-2.726 2.697a5.683 5.683 0 011.692 4.041 5.683 5.683 0 01-1.692 4.041 5.82 5.82 0 01-4.089 1.673 5.819 5.819 0 01-4.088-1.673 5.683 5.683 0 01-1.693-4.041c0-1.515.609-2.969 1.693-4.041a5.819 5.819 0 014.088-1.673 5.82 5.82 0 014.089 1.673zM27.95.702c1.265 0 2.517.247 3.685.726a9.638 9.638 0 013.124 2.064 9.444 9.444 0 010 13.468 9.7 9.7 0 01-6.815 2.789 9.7 9.7 0 01-6.815-2.789 9.446 9.446 0 010-13.469 9.639 9.639 0 013.124-2.064 9.729 9.729 0 013.685-.725h.012zm4.082 5.484a5.684 5.684 0 011.694 4.041c0 1.516-.61 2.97-1.694 4.042a5.82 5.82 0 01-4.088 1.673 5.819 5.819 0 01-4.089-1.673 5.683 5.683 0 01-1.692-4.041c0-1.515.609-2.969 1.692-4.041a5.819 5.819 0 014.089-1.673 5.82 5.82 0 014.088 1.673v-.001z" fill="#BCC3DC"/></svg>