<svg width="99" height="29" viewBox="0 0 99 29" fill="none" xmlns="http://www.w3.org/2000/svg">
<g clip-path="url(#clip0_2_603)">
<path fill-rule="evenodd" clip-rule="evenodd" d="M61.4176 22.6789C55.6646 26.8008 47.3259 29 40.1464 29C30.0796 29 21.0169 25.3808 14.1607 19.3613C13.622 18.8879 14.1047 18.2428 14.7511 18.6114C22.1503 22.7962 31.2992 25.3137 40.7497 25.3137C47.1233 25.3137 54.1347 24.0319 60.5816 21.372C61.5555 20.9698 62.37 21.9919 61.4176 22.6789Z" fill="#BCC3DC"/>
<path fill-rule="evenodd" clip-rule="evenodd" d="M63.8093 20.0189C63.0767 19.1057 58.9483 19.5874 57.0952 19.8011C56.5307 19.8681 56.4445 19.3906 56.953 19.0471C60.2411 16.7976 65.6364 17.4469 66.2656 18.2009C66.8948 18.9591 66.1019 24.2162 63.012 26.7254C62.538 27.1108 62.0855 26.9055 62.2967 26.3945C62.9905 24.7105 64.5462 20.9363 63.8093 20.0189Z" fill="#BCC3DC"/>
<path fill-rule="evenodd" clip-rule="evenodd" d="M57.2245 3.16681V0.980185C57.2245 0.649259 57.4831 0.427246 57.7934 0.427246H67.8644C68.1876 0.427246 68.4462 0.653449 68.4462 0.980185V2.85264C68.4419 3.16681 68.1704 3.57732 67.6878 4.22661L62.4691 11.4693C64.4083 11.4232 66.4553 11.7039 68.2135 12.6673C68.61 12.8851 68.7177 13.2035 68.7479 13.5177V15.8509C68.7479 16.1693 68.3859 16.5421 68.0067 16.3494C64.9082 14.7701 60.7927 14.5984 57.3667 16.3661C57.0177 16.5504 56.6514 16.1818 56.6514 15.8635V13.6475C56.6514 13.2915 56.6557 12.6841 57.022 12.1437L63.0681 3.71556H57.8063C57.4831 3.71556 57.2245 3.49355 57.2245 3.16681Z" fill="#BCC3DC"/>
<path fill-rule="evenodd" clip-rule="evenodd" d="M20.487 16.8102H17.423C17.13 16.7892 16.8973 16.5756 16.8757 16.3033V1.01791C16.8757 0.712115 17.1386 0.469155 17.4661 0.469155H20.3233C20.6206 0.481713 20.8576 0.703735 20.8792 0.980204V2.97833H20.9352C21.6807 1.04723 23.0813 0.146606 24.9688 0.146606C26.8865 0.146606 28.0845 1.04723 28.9464 2.97833C29.6876 1.04723 31.3726 0.146606 33.1782 0.146606C34.4624 0.146606 35.8673 0.661845 36.7249 1.81799C37.6945 3.10399 37.4962 4.97226 37.4962 6.61013L37.4919 16.2572C37.4919 16.563 37.2291 16.8102 36.9016 16.8102H33.8419C33.5359 16.7892 33.2903 16.5505 33.2903 16.2572V8.15584C33.2903 7.51075 33.3506 5.9022 33.2041 5.29061C32.9757 4.26433 32.2905 3.97529 31.4027 3.97529C30.6615 3.97529 29.8858 4.45702 29.5712 5.22778C29.2567 5.99855 29.2868 7.28873 29.2868 8.15584V16.2572C29.2868 16.563 29.024 16.8102 28.6964 16.8102H25.6368C25.3265 16.7892 25.0852 16.5505 25.0852 16.2572L25.0808 8.15584C25.0808 6.45095 25.3696 3.94178 23.1933 3.94178C20.9912 3.94178 21.0774 6.38811 21.0774 8.15584V16.2572C21.0774 16.563 20.8145 16.8102 20.487 16.8102" fill="#BCC3DC"/>
<path fill-rule="evenodd" clip-rule="evenodd" d="M77.1167 0.146606C81.6632 0.146606 84.1238 3.94178 84.1238 8.76743C84.1238 13.4297 81.4046 17.1285 77.1167 17.1285C72.6522 17.1285 70.2217 13.3334 70.2217 8.60406C70.2217 3.84543 72.6823 0.146606 77.1167 0.146606ZM77.1426 3.26736C74.8845 3.26736 74.7422 6.25826 74.7422 8.12234C74.7422 9.9906 74.7121 13.9785 77.1167 13.9785C79.4912 13.9785 79.6033 10.7614 79.6033 8.80094C79.6033 7.51075 79.5472 5.96923 79.1465 4.74606C78.8017 3.68207 78.1165 3.26736 77.1426 3.26736Z" fill="#BCC3DC"/>
<path fill-rule="evenodd" clip-rule="evenodd" d="M90.0191 16.8102H86.968C86.662 16.7892 86.4164 16.5505 86.4164 16.2572L86.4121 0.967637C86.438 0.686978 86.6922 0.469155 87.0025 0.469155H89.8424C90.1096 0.481713 90.3294 0.657657 90.3897 0.896426V3.23385H90.4457C91.3033 1.14357 92.5056 0.146606 94.6215 0.146606C95.9962 0.146606 97.3364 0.628334 98.1983 1.94785C98.9999 3.17102 98.9999 5.22778 98.9999 6.70647V16.3285C98.9654 16.5965 98.7111 16.8102 98.4095 16.8102H95.3369C95.0568 16.7892 94.8241 16.5882 94.7939 16.3285V8.02599C94.7939 6.3546 94.9921 3.90827 92.8762 3.90827C92.1307 3.90827 91.4455 4.39419 91.105 5.13143C90.6741 6.06557 90.6181 6.99551 90.6181 8.02599V16.2572C90.6138 16.563 90.3466 16.8102 90.0191 16.8102" fill="#BCC3DC"/>
<path fill-rule="evenodd" clip-rule="evenodd" d="M49.1962 9.50888C49.1962 10.6692 49.2263 11.6369 48.623 12.6673C48.1361 13.5051 47.3604 14.0204 46.5028 14.0204C45.3263 14.0204 44.6368 13.1491 44.6368 11.8631C44.6368 9.32456 46.9768 8.86378 49.1962 8.86378V9.50888ZM52.286 16.7683C52.0835 16.9442 51.7904 16.9568 51.562 16.8395C50.545 16.0185 50.3597 15.6373 49.8038 14.854C48.1231 16.5212 46.9294 17.0196 44.7532 17.0196C42.1718 17.0196 40.168 15.4739 40.168 12.3783C40.168 9.96128 41.5125 8.31503 43.4345 7.51076C45.0979 6.79864 47.4207 6.67297 49.1962 6.47609V6.09071C49.1962 5.38278 49.2522 4.54499 48.8213 3.93341C48.4506 3.38466 47.7353 3.15846 47.1018 3.15846C45.934 3.15846 44.8954 3.74072 44.6411 4.94713C44.5894 5.21522 44.3869 5.47913 44.1068 5.49169L41.1376 5.18171C40.8876 5.12726 40.6075 4.93037 40.6808 4.55756C41.3617 1.05561 44.6196 0 47.5327 0C49.0238 0 50.9717 0.385383 52.1481 1.48288C53.6392 2.83591 53.497 4.64134 53.497 6.60595V11.2473C53.497 12.6422 54.0917 13.2538 54.6519 14.0078C54.8458 14.2759 54.8889 14.5984 54.6389 14.7995C54.0141 15.3064 52.9023 16.2489 52.2903 16.7767L52.286 16.7683" fill="#BCC3DC"/>
<path fill-rule="evenodd" clip-rule="evenodd" d="M9.02821 9.50912C9.02821 10.6695 9.05837 11.6371 8.45506 12.6676C7.96809 13.5054 7.19671 14.0206 6.33483 14.0206C5.15836 14.0206 4.47316 13.1493 4.47316 11.8633C4.47316 9.32481 6.81317 8.86403 9.02821 8.86403V9.50912ZM12.1181 16.7685C11.9155 16.9445 11.6225 16.957 11.3941 16.8398C10.3771 16.0187 10.1961 15.6375 9.63583 14.8542C7.95516 16.5214 6.76577 17.0199 4.58521 17.0199C2.00818 17.0199 0 15.4742 0 12.3785C0 9.96153 1.34884 8.31528 3.26653 7.511C4.92996 6.79888 7.25273 6.67322 9.02821 6.47634V6.09095C9.02821 5.38302 9.08423 4.54524 8.6576 3.93365C8.28268 3.3849 7.56732 3.1587 6.93814 3.1587C5.7703 3.1587 4.72742 3.74096 4.47316 4.94737C4.42145 5.21547 4.21891 5.47937 3.94311 5.49194L0.969617 5.18195C0.71967 5.1275 0.443868 4.93062 0.512819 4.55781C1.19801 1.05586 4.45161 0.000244141 7.36478 0.000244141C8.85583 0.000244141 10.8037 0.385627 11.9801 1.48313C13.4712 2.83615 13.329 4.64158 13.329 6.60619V11.2475C13.329 12.6424 13.9237 13.254 14.4839 14.008C14.6821 14.2761 14.7252 14.5987 14.4753 14.7997C13.8504 15.3066 12.7386 16.2491 12.1267 16.7769L12.1181 16.7685" fill="#BCC3DC"/>
</g>
<defs>
<clipPath id="clip0_2_603">
<rect width="99" height="29" fill="white"/>
</clipPath>
</defs>
</svg>
