<svg width="20" height="20" viewBox="0 0 20 20" fill="none" xmlns="http://www.w3.org/2000/svg">
<path d="M10.8333 7.50008H14.5833L14.1666 9.16675H10.8333V16.6667H9.16659V9.16675H5.83325V7.50008H9.16659V5.94008C9.16659 4.45425 9.32159 3.91508 9.61159 3.37175C9.89576 2.83492 10.3348 2.39592 10.8716 2.11175C11.4149 1.82175 11.9541 1.66675 13.4399 1.66675C13.8749 1.66675 14.2566 1.70841 14.5833 1.79175V3.33341H13.4399C12.3366 3.33341 12.0008 3.39841 11.6583 3.58175C11.4049 3.71675 11.2166 3.90508 11.0816 4.15841C10.8983 4.50091 10.8333 4.83675 10.8333 5.94008V7.50008Z" fill="#CCD2E9"/>
</svg>
