<svg width="109" height="36" viewBox="0 0 109 36" fill="none" xmlns="http://www.w3.org/2000/svg">
<path d="M46.3852 18.4617C46.3852 23.4587 42.3819 27.1409 37.4689 27.1409C32.5558 27.1409 28.5525 23.4587 28.5525 18.4617C28.5525 13.4295 32.5558 9.78259 37.4689 9.78259C42.3819 9.78259 46.3852 13.4295 46.3852 18.4617ZM42.482 18.4617C42.482 15.3391 40.1618 13.2026 37.4689 13.2026C34.7759 13.2026 32.4557 15.3391 32.4557 18.4617C32.4557 21.553 34.7759 23.7209 37.4689 23.7209C40.1618 23.7209 42.482 21.5491 42.482 18.4617Z" fill="#BCC3DC"/>
<path d="M65.6203 18.4617C65.6203 23.4587 61.617 27.1409 56.704 27.1409C51.7909 27.1409 47.7876 23.4587 47.7876 18.4617C47.7876 13.4335 51.7909 9.78259 56.704 9.78259C61.617 9.78259 65.6203 13.4295 65.6203 18.4617ZM61.7172 18.4617C61.7172 15.3391 59.3969 13.2026 56.704 13.2026C54.011 13.2026 51.6908 15.3391 51.6908 18.4617C51.6908 21.553 54.011 23.7209 56.704 23.7209C59.3969 23.7209 61.7172 21.5491 61.7172 18.4617Z" fill="#BCC3DC"/>
<path d="M84.0542 10.3069V25.8887C84.0542 32.2982 80.1831 34.9161 75.6067 34.9161C71.2988 34.9161 68.706 32.1026 67.7282 29.8017L71.1264 28.4204C71.7316 29.833 73.2143 31.5 75.6027 31.5C78.532 31.5 80.3474 29.7352 80.3474 26.413V25.1648H80.2111C79.3375 26.2174 77.6544 27.1369 75.5305 27.1369C71.0864 27.1369 67.0149 23.3569 67.0149 18.493C67.0149 13.5939 71.0864 9.78259 75.5305 9.78259C77.6504 9.78259 79.3335 10.7022 80.2111 11.7235H80.3474V10.3109H84.0542V10.3069ZM80.6239 18.493C80.6239 15.4369 78.536 13.2026 75.8792 13.2026C73.1862 13.2026 70.9301 15.4369 70.9301 18.493C70.9301 21.5178 73.1862 23.7209 75.8792 23.7209C78.536 23.7209 80.6239 21.5178 80.6239 18.493Z" fill="#BCC3DC"/>
<path d="M90.1654 1.17395V26.6087H86.3584V1.17395H90.1654Z" fill="#BCC3DC"/>
<path d="M105.001 21.3183L108.03 23.2904C107.052 24.703 104.696 27.1369 100.625 27.1369C95.5754 27.1369 91.8044 23.3256 91.8044 18.4578C91.8044 13.2965 95.6074 9.77869 100.188 9.77869C104.8 9.77869 107.056 13.363 107.794 15.3L108.199 16.2861L96.3167 21.0913C97.2264 22.8326 98.641 23.7209 100.625 23.7209C102.612 23.7209 103.991 22.7661 105.001 21.3183ZM95.6755 18.1956L103.618 14.9752C103.181 13.8913 101.867 13.1361 100.32 13.1361C98.3364 13.1361 95.5754 14.8461 95.6755 18.1956Z" fill="#BCC3DC"/>
<path d="M14.142 16.204V12.5218H26.8493C26.9735 13.1635 27.0376 13.9227 27.0376 14.7444C27.0376 17.507 26.2642 20.9231 23.7716 23.357C21.3472 25.8222 18.2495 27.137 14.146 27.137C6.54002 27.137 0.144287 21.0874 0.144287 13.6605C0.144287 6.23352 6.54002 0.18396 14.146 0.18396C18.3537 0.18396 21.3512 1.79613 23.6033 3.89744L20.9424 6.4957C19.3275 5.01657 17.1395 3.86613 14.142 3.86613C8.58778 3.86613 4.24381 8.237 4.24381 13.6605C4.24381 19.084 8.58778 23.4548 14.142 23.4548C17.7446 23.4548 19.7963 22.0422 21.1108 20.7587C22.1767 19.7179 22.878 18.2309 23.1545 16.2L14.142 16.204Z" fill="#BCC3DC"/>
</svg>
