<svg width="20" height="20" viewBox="0 0 20 20" fill="none" xmlns="http://www.w3.org/2000/svg">
<path d="M12.7501 4.62501C12.1167 4.62491 11.5086 4.87345 11.0567 5.31715C10.6047 5.76086 10.345 6.36426 10.3334 6.99751L10.3101 8.31001C10.3087 8.38048 10.2925 8.44987 10.2624 8.51362C10.2323 8.57737 10.1891 8.63404 10.1356 8.67991C10.0821 8.72579 10.0195 8.75983 9.95193 8.77982C9.88434 8.7998 9.81328 8.80526 9.74343 8.79585L8.4426 8.61918C6.73093 8.38585 5.09093 7.59751 3.5176 6.28668C3.01926 9.04501 3.9926 10.9558 6.33676 12.43L7.7926 13.345C7.86177 13.3885 7.91924 13.4482 7.95997 13.5191C8.0007 13.5899 8.02346 13.6696 8.02626 13.7512C8.02906 13.8329 8.0118 13.914 7.97601 13.9874C7.94021 14.0609 7.88697 14.1244 7.82093 14.1725L6.49426 15.1417C7.28343 15.1908 8.0326 15.1558 8.65426 15.0325C12.5859 14.2475 15.2001 11.2892 15.2001 6.40918C15.2001 6.01085 14.3568 4.62501 12.7501 4.62501ZM8.66676 6.96668C8.68131 6.16339 8.9325 5.38224 9.3889 4.72103C9.84529 4.05983 10.4866 3.54795 11.2325 3.24949C11.9785 2.95103 12.7959 2.87925 13.5824 3.04314C14.3689 3.20703 15.0896 3.5993 15.6543 4.17085C16.2468 4.16668 16.7509 4.31668 17.8784 3.63335C17.5993 5.00001 17.4618 5.59335 16.8668 6.40918C16.8668 12.7775 12.9526 15.8742 8.98093 16.6667C6.2576 17.21 2.2976 16.3175 1.1626 15.1325C1.74093 15.0875 4.09093 14.835 5.44926 13.8408C4.3001 13.0833 -0.274069 10.3917 2.73176 3.15501C4.1426 4.80251 5.57343 5.92418 7.02343 6.51918C7.98843 6.91501 8.2251 6.90668 8.6676 6.96751L8.66676 6.96668Z" fill="#CCD2E9"/>
</svg>
