<svg width="86" height="20" viewBox="0 0 86 20" fill="none" xmlns="http://www.w3.org/2000/svg">
<path fill-rule="evenodd" clip-rule="evenodd" d="M69.8239 6.41403C70.1517 6.97303 70.259 7.60903 70.2944 8.32403L70.3409 9.27703V15.941L70.3885 16.895C70.4836 18.453 71.6461 19.605 73.2346 19.703L74.1947 19.75V9.27703L74.2423 8.32403C74.2817 7.61703 74.388 6.96903 74.7208 6.40603C75.06 5.82856 75.547 5.34946 76.1328 5.01681C76.7185 4.68417 77.3825 4.5097 78.0581 4.51091C78.7337 4.51213 79.3971 4.68899 79.9816 5.02374C80.5662 5.35849 81.0513 5.83935 81.3884 6.41803C81.7162 6.97703 81.8184 7.62503 81.8578 8.32403L81.9054 9.27403V15.941L81.9529 16.895C82.0521 18.461 83.2055 19.613 84.799 19.703L85.7592 19.75V8.32403C85.7592 6.3036 84.9474 4.36588 83.5022 2.93694C82.057 1.50799 80.0968 0.704824 78.0526 0.704029C76.9585 0.702888 75.8767 0.932534 74.8796 1.37762C73.8825 1.82271 72.9929 2.473 72.2704 3.28503C71.5475 2.47332 70.6579 1.82319 69.6608 1.37797C68.6638 0.932747 67.5822 0.702657 66.4881 0.703029C64.8875 0.703029 63.4022 1.18303 62.1719 2.01203C61.4212 1.18403 59.7417 0.703029 58.7775 0.703029V19.75L59.7417 19.703C61.3544 19.598 62.52 18.477 62.5827 16.895L62.6343 15.941V9.27703L62.6819 8.32403C62.7223 7.60503 62.8235 6.97303 63.1523 6.41003C63.4918 5.83292 63.9785 5.35393 64.5639 5.02088C65.1492 4.68783 65.8127 4.51237 66.4881 4.51203C67.164 4.51217 67.8281 4.68798 68.4135 5.02181C68.999 5.35565 69.4854 5.83577 69.8239 6.41403ZM3.85381 19.704L4.81802 19.75H19.2711L19.2235 18.8C19.093 17.234 17.971 16.09 16.3815 15.988L15.4173 15.941H6.74645L18.3069 4.51103L18.2593 3.56203C18.1844 1.98003 17.0148 0.837029 15.4173 0.750029L14.4531 0.707029L0 0.703029L0.0475529 1.65603C0.174024 3.20703 1.31226 4.37503 2.88859 4.46503L3.85381 4.51203H12.5246L0.964212 15.942L1.01176 16.895C1.10687 18.465 2.2532 19.602 3.85381 19.703V19.704ZM54.9945 3.49103C55.8894 4.37535 56.5993 5.42525 57.0836 6.58076C57.568 7.73628 57.8172 8.97478 57.8172 10.2255C57.8172 11.4763 57.568 12.7148 57.0836 13.8703C56.5993 15.0258 55.8894 16.0757 54.9945 16.96C53.1865 18.7456 50.7351 19.7486 48.1792 19.7486C45.6233 19.7486 43.172 18.7456 41.364 16.96C37.6012 13.241 37.6012 7.21003 41.364 3.49103C42.2581 2.60701 43.3196 1.9057 44.4879 1.42716C45.6562 0.948625 46.9085 0.702224 48.1732 0.702029C49.4399 0.701159 50.6944 0.947127 51.8648 1.42586C53.0353 1.9046 54.0988 2.60671 54.9945 3.49203V3.49103ZM52.2678 6.18803C53.3516 7.26005 53.9604 8.71354 53.9604 10.229C53.9604 11.7445 53.3516 13.198 52.2678 14.27C51.1831 15.3412 49.7125 15.943 48.1792 15.943C46.6459 15.943 45.1753 15.3412 44.0907 14.27C43.0069 13.198 42.3981 11.7445 42.3981 10.229C42.3981 8.71354 43.0069 7.26005 44.0907 6.18803C45.1753 5.11682 46.6459 4.51509 48.1792 4.51509C49.7125 4.51509 51.1831 5.11682 52.2678 6.18803ZM27.95 0.702029C29.2147 0.702355 30.467 0.948914 31.6354 1.42763C32.8037 1.90634 33.8652 2.60782 34.7592 3.49203C38.5229 7.21003 38.5229 13.242 34.7592 16.96C32.9512 18.7456 30.4998 19.7486 27.9439 19.7486C25.388 19.7486 22.9367 18.7456 21.1287 16.96C17.3659 13.241 17.3659 7.21003 21.1287 3.49103C22.0228 2.60701 23.0843 1.9057 24.2526 1.42716C25.4209 0.948625 26.6732 0.702224 27.9379 0.702029H27.95ZM32.0325 6.18603C33.1166 7.25809 33.7256 8.71179 33.7256 10.2275C33.7256 11.7433 33.1166 13.197 32.0325 14.269C30.9478 15.3402 29.4773 15.942 27.9439 15.942C26.4106 15.942 24.94 15.3402 23.8554 14.269C22.7716 13.197 22.1628 11.7435 22.1628 10.228C22.1628 8.71254 22.7716 7.25905 23.8554 6.18703C24.94 5.11582 26.4106 4.51409 27.9439 4.51409C29.4773 4.51409 30.9478 5.11582 32.0325 6.18703V6.18603Z" fill="#BCC3DC"/>
</svg>
