<svg width="48" height="48" viewBox="0 0 48 48" fill="none" xmlns="http://www.w3.org/2000/svg">
<path d="M44 25.998V40C44 40.5304 43.7893 41.0391 43.4142 41.4142C43.0391 41.7893 42.5304 42 42 42H26V25.998H44ZM22 25.998V42H6C5.46957 42 4.96086 41.7893 4.58579 41.4142C4.21071 41.0391 4 40.5304 4 40V25.998H22ZM22 6V21.998H4V8C4 7.46957 4.21071 6.96086 4.58579 6.58579C4.96086 6.21071 5.46957 6 6 6H22ZM42 6C42.5304 6 43.0391 6.21071 43.4142 6.58579C43.7893 6.96086 44 7.46957 44 8V21.998H26V6H42Z" fill="#0059F7"/>
</svg>
