<svg width="20" height="20" viewBox="0 0 20 20" fill="none" xmlns="http://www.w3.org/2000/svg">
<path d="M10.0001 7.50008C9.33704 7.50008 8.70116 7.76347 8.23231 8.23231C7.76347 8.70116 7.50008 9.33704 7.50008 10.0001C7.50008 10.6631 7.76347 11.299 8.23231 11.7678C8.70116 12.2367 9.33704 12.5001 10.0001 12.5001C10.6631 12.5001 11.299 12.2367 11.7678 11.7678C12.2367 11.299 12.5001 10.6631 12.5001 10.0001C12.5001 9.33704 12.2367 8.70116 11.7678 8.23231C11.299 7.76347 10.6631 7.50008 10.0001 7.50008ZM10.0001 5.83342C11.1052 5.83342 12.165 6.2724 12.9464 7.0538C13.7278 7.83521 14.1667 8.89501 14.1667 10.0001C14.1667 11.1052 13.7278 12.165 12.9464 12.9464C12.165 13.7278 11.1052 14.1667 10.0001 14.1667C8.89501 14.1667 7.83521 13.7278 7.0538 12.9464C6.2724 12.165 5.83342 11.1052 5.83342 10.0001C5.83342 8.89501 6.2724 7.83521 7.0538 7.0538C7.83521 6.2724 8.89501 5.83342 10.0001 5.83342ZM15.4167 5.62508C15.4167 5.90135 15.307 6.1663 15.1117 6.36165C14.9163 6.557 14.6513 6.66675 14.3751 6.66675C14.0988 6.66675 13.8339 6.557 13.6385 6.36165C13.4432 6.1663 13.3334 5.90135 13.3334 5.62508C13.3334 5.34881 13.4432 5.08386 13.6385 4.88851C13.8339 4.69316 14.0988 4.58341 14.3751 4.58341C14.6513 4.58341 14.9163 4.69316 15.1117 4.88851C15.307 5.08386 15.4167 5.34881 15.4167 5.62508ZM10.0001 3.33341C7.93842 3.33341 7.60175 3.33925 6.64258 3.38175C5.98925 3.41258 5.55091 3.50008 5.14425 3.65841C4.78258 3.79841 4.52175 3.96591 4.24425 4.24425C3.98342 4.49625 3.78288 4.8039 3.65758 5.14425C3.49925 5.55258 3.41175 5.99008 3.38175 6.64258C3.33841 7.56258 3.33341 7.88425 3.33341 10.0001C3.33341 12.0617 3.33925 12.3984 3.38175 13.3576C3.41258 14.0101 3.50008 14.4492 3.65758 14.8551C3.79925 15.2176 3.96591 15.4784 4.24258 15.7551C4.52341 16.0351 4.78425 16.2026 5.14258 16.3409C5.55425 16.5001 5.99258 16.5884 6.64258 16.6184C7.56258 16.6617 7.88425 16.6667 10.0001 16.6667C12.0617 16.6667 12.3984 16.6609 13.3576 16.6184C14.0092 16.5876 14.4484 16.5001 14.8551 16.3426C15.2159 16.2017 15.4784 16.0342 15.7551 15.7576C16.0359 15.4767 16.2034 15.2159 16.3417 14.8576C16.5001 14.4467 16.5884 14.0076 16.6184 13.3576C16.6617 12.4376 16.6667 12.1159 16.6667 10.0001C16.6667 7.93842 16.6609 7.60175 16.6184 6.64258C16.5876 5.99092 16.5001 5.55091 16.3417 5.14425C16.2162 4.80425 16.016 4.49672 15.7559 4.24425C15.504 3.98329 15.1963 3.78272 14.8559 3.65758C14.4476 3.49925 14.0092 3.41175 13.3576 3.38175C12.4376 3.33841 12.1159 3.33341 10.0001 3.33341ZM10.0001 1.66675C12.2642 1.66675 12.5467 1.67508 13.4351 1.71675C14.3226 1.75841 14.9267 1.89758 15.4584 2.10425C16.0084 2.31591 16.4717 2.60258 16.9351 3.06508C17.3588 3.48166 17.6867 3.98557 17.8959 4.54175C18.1017 5.07258 18.2417 5.67758 18.2834 6.56508C18.3226 7.45341 18.3334 7.73592 18.3334 10.0001C18.3334 12.2642 18.3251 12.5467 18.2834 13.4351C18.2417 14.3226 18.1017 14.9267 17.8959 15.4584C17.6873 16.0149 17.3594 16.5189 16.9351 16.9351C16.5184 17.3587 16.0145 17.6865 15.4584 17.8959C14.9276 18.1017 14.3226 18.2417 13.4351 18.2834C12.5467 18.3226 12.2642 18.3334 10.0001 18.3334C7.73592 18.3334 7.45341 18.3251 6.56508 18.2834C5.67758 18.2417 5.07341 18.1017 4.54175 17.8959C3.98535 17.6871 3.48135 17.3592 3.06508 16.9351C2.64125 16.5186 2.31336 16.0146 2.10425 15.4584C1.89758 14.9276 1.75841 14.3226 1.71675 13.4351C1.67758 12.5467 1.66675 12.2642 1.66675 10.0001C1.66675 7.73592 1.67508 7.45341 1.71675 6.56508C1.75841 5.67675 1.89758 5.07341 2.10425 4.54175C2.31278 3.98523 2.64075 3.48118 3.06508 3.06508C3.48147 2.64111 3.98544 2.31319 4.54175 2.10425C5.07341 1.89758 5.67675 1.75841 6.56508 1.71675C7.45341 1.67758 7.73592 1.66675 10.0001 1.66675Z" fill="#CCD2E9"/>
</svg>
