<svg width="20" height="20" viewBox="0 0 20 20" fill="none" xmlns="http://www.w3.org/2000/svg">
<path d="M10.0001 7.95841C10.7642 7.17758 11.7592 6.66675 12.9167 6.66675C14.1323 6.66675 15.2981 7.14963 16.1577 8.00917C17.0172 8.86872 17.5001 10.0345 17.5001 11.2501V17.5001H15.8334V11.2501C15.8334 10.4765 15.5261 9.73467 14.9791 9.18769C14.4322 8.64071 13.6903 8.33341 12.9167 8.33341C12.1432 8.33341 11.4013 8.64071 10.8544 9.18769C10.3074 9.73467 10.0001 10.4765 10.0001 11.2501V17.5001H8.33342V7.08341H10.0001V7.95841ZM4.16675 5.41675C3.83523 5.41675 3.51729 5.28505 3.28286 5.05063C3.04844 4.81621 2.91675 4.49827 2.91675 4.16675C2.91675 3.83523 3.04844 3.51729 3.28286 3.28286C3.51729 3.04844 3.83523 2.91675 4.16675 2.91675C4.49827 2.91675 4.81621 3.04844 5.05063 3.28286C5.28505 3.51729 5.41675 3.83523 5.41675 4.16675C5.41675 4.49827 5.28505 4.81621 5.05063 5.05063C4.81621 5.28505 4.49827 5.41675 4.16675 5.41675ZM3.33341 7.08341H5.00008V17.5001H3.33341V7.08341Z" fill="#CCD2E9"/>
</svg>
