<svg width="106" height="29" viewBox="0 0 106 29" fill="none" xmlns="http://www.w3.org/2000/svg">
<path d="M18.9253 25.3886C17.5112 25.6329 16.0723 25.7062 14.5838 25.9013L10.0437 12.8155V26.4629C8.6297 26.6094 7.33968 26.8047 6 27V2H9.77102L14.9311 16.1848V2H18.9253V25.3886ZM26.74 11.1553C28.2783 11.1553 30.6351 11.082 32.0491 11.082V14.9882C30.2876 14.9882 28.2286 14.9882 26.74 15.0614V20.8721C29.0721 20.7257 31.4041 20.5302 33.7608 20.4569V24.2164L22.7706 25.0711V2H33.7608V5.90626H26.74V11.1553ZM48.522 5.90635H44.4038V23.8751C43.0641 23.8751 41.7244 23.8751 40.4346 23.9238V5.90635H36.3164V2H48.5221L48.522 5.90635ZM54.9722 10.8868H60.4053V14.793H54.9722V23.6554H51.0769V2H62.1667V5.90626H54.9722V10.8868ZM68.6169 20.2373C70.8746 20.286 73.1569 20.4572 75.3649 20.579V24.4365C71.8174 24.2166 68.2697 23.9972 64.6476 23.9238V2H68.6169V20.2373ZM78.7141 24.7051C79.9793 24.7784 81.319 24.8517 82.609 24.998V2H78.7141V24.7051ZM100 2L94.9638 13.8897L100 27C98.5113 26.8047 97.0228 26.5361 95.5343 26.2919L92.6814 19.0655L89.7791 25.7062C88.3399 25.4618 86.9506 25.3886 85.512 25.1933L90.6225 13.7431L86.0079 2H90.2749L92.8798 8.5674L95.6585 2H100V2Z" fill="#BCC3DC"/>
</svg>
